# xmcd
#
# Track frame offsets: 
#        150
#        19400
#        44337
#        94866
#        103737
#        112054
#        122661
#        135206
#        146962
#        160903
#        183400
#        194563
#        222162
#        230363
#        251448
#
# Disc length: 3700 seconds
#
# Revision: 2
# Processed by: cddbd v1.5.2PL0 Copyright (c) Steve Scherf et al.
# Submitted via: ExactAudioCopy v1.1
#
DISCID=da0e720f
DTITLE=David El-Malek - Music from Source vol. II
DYEAR=2011
DGENRE=World Fusion
TTITLE0=Awis
TTITLE1=Hinë Matov
TTITLE2=Bereshit Baha
TTITLE3=Les temps primitifs
TTITLE4=Tehilim 150 part I
TTITLE5=Tehilim 150 part II
TTITLE6=Tehilim 150 part III
TTITLE7=Tehilim 150 part IV
TTITLE8=Tehilim
TTITLE9=Adon Olam
TTITLE10=Berosh Hachana
TTITLE11=Hamadouchi
TTITLE12=Adir Hou
TTITLE13=Neïla
TTITLE14=Allawi
EXTD=YEAR: 2011
EXTT0=
EXTT1=
EXTT2=
EXTT3=
EXTT4=
EXTT5=
EXTT6=
EXTT7=
EXTT8=
EXTT9=
EXTT10=
EXTT11=
EXTT12=
EXTT13=
EXTT14=
PLAYORDER=
